<svg xmlns="http://www.w3.org/2000/svg" viewBox="0 0 52 36"><defs><style>.cls-1{fill:#c00848;}.cls-2{fill:none;}</style></defs><g id="Layer_2" data-name="Layer 2"><g id="Layer_1-2" data-name="Layer 1"><polygon class="cls-1" points="32.98 22.61 39.16 30.36 38.53 31.15 32.98 31.15 22.68 18.02 33.22 4.49 38.71 4.52 39.16 5.04 32.92 13.09 36.42 13.09 42.49 5.28 39.88 1.96 35.14 1.98 31.65 1.98 24.33 11.42 16.97 1.98 12.32 1.98 8.76 1.98 7.13 1.98 5.19 1.98 0 1.98 12.9 18.01 0.36 34.01 5.55 34.01 7.49 34.01 9.11 34.01 12.68 34.01 16.74 34.01 24.29 24.24 31.79 34.04 35.14 34.04 40.27 34 42.41 30.36 36.23 22.61 32.98 22.61"/><path class="cls-1" d="M35.6,18.25H32.35l-1.11,1.51h3.17L33.3,21.18H26.72L30,16.91h3.49l.95-1.27H30.92L32,14.22h6.66Z"/><polygon class="cls-1" points="39.76 22.65 42.29 19.98 42.29 15.19 42.26 13.77 42.6 13.31 48.18 13.31 50.29 10.79 41.35 10.79 39.71 12.93 39.76 15.25 39.76 22.65"/><polygon class="cls-1" points="49.25 15.94 49.3 21.74 48.97 22.14 43.77 22.14 41.54 24.66 50.28 24.66 52 22.67 51.91 12.93 49.25 15.94"/><rect class="cls-2" width="52" height="36"/></g></g></svg>