<svg xmlns="http://www.w3.org/2000/svg" viewBox="0 0 200 80"><defs><style>.cls-1{fill:#fff;}.cls-2{fill:none;}</style></defs><g id="Layer_2" data-name="Layer 2"><g id="Layer_1-2" data-name="Layer 1"><polygon class="cls-1" points="117.12 51.48 132.28 70.81 130.73 72.78 117.12 72.78 91.85 40.04 117.7 6.31 131.16 6.4 132.28 7.69 116.97 27.77 125.55 27.77 140.44 8.29 134.03 0 122.43 0.07 113.85 0.07 95.9 23.59 77.86 0.07 66.46 0.07 57.71 0.07 53.73 0.07 48.96 0.07 36.23 0.07 67.86 40.03 37.11 79.91 49.83 79.91 54.61 79.91 58.58 79.91 67.33 79.91 77.29 79.91 95.8 55.56 114.2 80 122.43 80 135 79.89 140.25 70.81 125.09 51.48 117.12 51.48"/><path class="cls-1" d="M123.53,40.63h-8l-2.73,3.75h7.78l-2.72,3.55H101.77l8-10.65h8.56l2.33-3.16h-8.55l2.72-3.55h16.32Z"/><polygon class="cls-1" points="133.75 51.6 139.94 44.93 139.94 32.99 139.87 29.44 140.72 28.32 154.4 28.32 159.57 22.02 137.66 22.02 133.63 27.37 133.75 33.15 133.75 51.6"/><polygon class="cls-1" points="157.03 34.85 157.16 49.33 156.33 50.31 143.59 50.31 138.12 56.6 159.55 56.6 163.77 51.65 163.56 27.35 157.03 34.85"/><rect class="cls-2" width="200" height="80"/></g></g></svg>