<svg xmlns="http://www.w3.org/2000/svg" viewBox="0 0 200 79.87"><defs><style>.cls-1{fill:#c00848;}.cls-2{fill:none;}</style></defs><g id="Layer_2" data-name="Layer 2"><g id="Layer_1-2" data-name="Layer 1"><polygon class="cls-1" points="117.38 51.4 132.76 70.7 131.18 72.67 117.38 72.67 91.73 39.98 117.97 6.3 131.63 6.39 132.76 7.68 117.22 27.72 125.92 27.72 141.04 8.27 134.53 0 122.76 0.07 114.05 0.07 95.84 23.55 77.53 0.07 65.96 0.07 57.08 0.07 53.04 0.07 48.2 0.07 35.28 0.07 67.39 39.96 36.17 79.78 49.09 79.78 53.93 79.78 57.97 79.78 66.85 79.78 76.95 79.78 95.74 55.47 114.42 79.87 122.76 79.87 135.52 79.75 140.85 70.7 125.46 51.4 117.38 51.4"/><path class="cls-1" d="M123.88,40.57H115.8L113,44.31h7.89l-2.77,3.54H101.79l8.09-10.63h8.68l2.37-3.15h-8.68L115,30.52h16.57Z"/><polygon class="cls-1" points="134.25 51.52 140.54 44.86 140.54 32.94 140.47 29.39 141.33 28.27 155.21 28.27 160.45 21.99 138.22 21.99 134.13 27.32 134.25 33.09 134.25 51.52"/><polygon class="cls-1" points="157.88 34.8 158.01 49.25 157.16 50.23 144.24 50.23 138.69 56.51 160.43 56.51 164.72 51.57 164.5 27.31 157.88 34.8"/><rect class="cls-2" width="200" height="79.87"/></g></g></svg>