<svg xmlns="http://www.w3.org/2000/svg" viewBox="0 0 200 80"><defs><style>.cls-1{fill:#c00848;}.cls-2{fill:none;}</style></defs><g id="Layer_2" data-name="Layer 2"><g id="Layer_1-2" data-name="Layer 1"><polygon class="cls-1" points="112.16 36.04 122.93 49.57 121.83 50.95 112.16 50.95 94.21 28.03 112.58 4.42 122.14 4.48 122.93 5.38 112.06 19.44 118.15 19.44 128.73 5.8 124.18 0 115.93 0.05 109.84 0.05 97.08 16.52 84.27 0.05 76.17 0.05 69.95 0.05 67.13 0.05 63.74 0.05 54.7 0.05 77.17 28.02 55.32 55.94 64.36 55.94 67.75 55.94 70.58 55.94 76.79 55.94 83.87 55.94 97.02 38.89 110.09 56 115.93 56 124.87 55.92 128.59 49.57 117.82 36.04 112.16 36.04"/><path class="cls-1" d="M116.72,28.45h-5.66l-1.93,2.62h5.52l-1.93,2.48H101.25l5.67-7.45H113l1.66-2.21h-6.08l1.94-2.49h11.6Z"/><polygon class="cls-1" points="123.97 36.12 128.38 31.46 128.38 23.1 128.33 20.61 128.93 19.82 138.65 19.82 142.32 15.42 126.75 15.42 123.89 19.16 123.97 23.21 123.97 36.12"/><polygon class="cls-1" points="140.52 24.4 140.61 34.53 140.02 35.22 130.97 35.22 127.08 39.62 142.31 39.62 145.3 36.16 145.15 19.15 140.52 24.4"/><path class="cls-1" d="M47.21,79.87H45.94V74.35h1.27Z"/><path class="cls-1" d="M50.21,75.62v4.25H48.93V74.35h5.53v5.52H53.18V75.62Z"/><path class="cls-1" d="M61.91,74.35l-.42,1.27h-4v.85h3.4v1.27h-3.4v2.13H56.18V74.35Z"/><path class="cls-1" d="M63.42,74.35h5.52v5.52H63.42Zm1.28,1.27v3h3v-3Z"/><path class="cls-1" d="M71.94,75.62v4.25H70.66V74.35h5.53v5.52H74.91V75.62h-.85v4.25H72.79V75.62Z"/><path class="cls-1" d="M81.92,79.27H79l-.35.6H77.27l3.2-5.52,3.19,5.52H82.27Zm-.69-1.2-.76-1.33-.77,1.33Z"/><path class="cls-1" d="M87.06,75.62v4.25H85.79V75.62H83.66V74.35h5.53v1.27Z"/><path class="cls-1" d="M92.18,79.87H90.91V74.35h1.27Z"/><path class="cls-1" d="M99.42,74.35v1.27H95.18v3h4.24v1.28H93.9V74.35Z"/><path class="cls-1" d="M106.67,74.35l-.43,1.27h-3.82v.85h4.25v3.4h-5.53l.43-1.28h3.82v-.85h-4.25V74.35Z"/><path class="cls-1" d="M112.69,77.74v2.13h-1.27v-3.4h4.24v-.85h-4.24l.42-1.27h5.1v3.39Z"/><path class="cls-1" d="M118.66,74.35h1.27v3.32l1.49.86,1.49-.86V74.35h1.27v4.06L121.42,80l-2.76-1.59Z"/><path class="cls-1" d="M129.3,75.62v4.25H128V75.62H125.9V74.35h5.53v1.27Z"/><path class="cls-1" d="M136.17,74.35h1.28v4.24h4.25v1.28h-5.53Z"/><path class="cls-1" d="M144.69,75.62v4.25h-1.27V75.62h-2.13V74.35h5.53v1.27Z"/><path class="cls-1" d="M148.54,76.47h1.27v2.12h3v-3h-4.25l.42-1.27h5.1v5.52h-5.52Z"/><rect class="cls-2" width="200" height="80"/></g></g></svg>