<svg xmlns="http://www.w3.org/2000/svg" viewBox="0 0 200 80"><defs><style>.cls-1{fill:#1e1d1d;}.cls-2{fill:none;}</style></defs><g id="Layer_2" data-name="Layer 2"><g id="Layer_1-2" data-name="Layer 1"><polygon class="cls-1" points="117.38 51.48 132.76 70.81 131.18 72.78 117.38 72.78 91.73 40.04 117.97 6.31 131.63 6.4 132.76 7.69 117.22 27.77 125.92 27.77 141.04 8.29 134.53 0 122.76 0.07 114.05 0.07 95.84 23.59 77.53 0.07 65.96 0.07 57.08 0.07 53.04 0.07 48.2 0.07 35.28 0.07 67.39 40.03 36.17 79.91 49.09 79.91 53.93 79.91 57.97 79.91 66.85 79.91 76.95 79.91 95.74 55.56 114.42 80 122.76 80 135.52 79.89 140.85 70.81 125.46 51.48 117.38 51.48"/><path class="cls-1" d="M123.88,40.63H115.8L113,44.38h7.89l-2.77,3.55H101.79l8.09-10.65h8.68l2.37-3.16h-8.68L115,30.57h16.57Z"/><polygon class="cls-1" points="134.25 51.6 140.54 44.93 140.54 32.99 140.47 29.44 141.33 28.32 155.21 28.32 160.45 22.02 138.22 22.02 134.13 27.37 134.25 33.15 134.25 51.6"/><polygon class="cls-1" points="157.88 34.85 158.01 49.33 157.16 50.31 144.24 50.31 138.69 56.6 160.43 56.6 164.72 51.65 164.5 27.35 157.88 34.85"/><rect class="cls-2" width="200" height="80"/></g></g></svg>